<svg width="38" height="38" viewBox="0 0 38 38" fill="none" xmlns="http://www.w3.org/2000/svg">
<path d="M37.3666 34.1999H35.4666V22.1665C35.4663 21.8168 35.1825 21.5335 34.8327 21.5337C34.6264 21.5338 34.433 21.6345 34.3145 21.8036L25.4479 34.4703C25.2474 34.757 25.3173 35.1519 25.604 35.3522C25.7103 35.4266 25.8368 35.4665 25.9666 35.4665H34.1999V37.3665C34.1999 37.7163 34.4835 37.9999 34.8332 37.9999C35.183 37.9999 35.4666 37.7163 35.4666 37.3665V35.4665H37.3666C37.7163 35.4665 37.9999 35.183 37.9999 34.8332C37.9999 34.4835 37.7163 34.1999 37.3666 34.1999ZM34.1999 34.1999H27.1826L34.1999 24.1755V34.1999Z" fill="#10D0A1"/>
<path d="M25.9668 36.7333H18.4688L25.4399 28.5247C25.4557 28.5059 25.4705 28.4862 25.4842 28.4658C26.7957 26.5248 26.3588 23.8968 24.4899 22.4846C22.2174 20.8518 19.0515 21.3704 17.4188 23.6429C16.7996 24.5046 16.4666 25.5389 16.4668 26.6C16.4668 26.9497 16.7504 27.2333 17.1001 27.2333C17.4499 27.2333 17.7335 26.9497 17.7335 26.6C17.7332 24.5013 19.4344 22.7998 21.5331 22.7996C22.3285 22.7995 23.104 23.049 23.7501 23.5131C25.0593 24.5162 25.3642 26.3637 24.4468 27.7343L16.6175 36.9569C16.3912 37.2236 16.424 37.6232 16.6907 37.8496C16.8051 37.9466 16.9501 37.9999 17.1001 38H25.9668C26.3166 38 26.6001 37.7164 26.6001 37.3667C26.6001 37.0169 26.3166 36.7333 25.9668 36.7333Z" fill="#10D0A1"/>
<path d="M17.1139 33.5787C17.1272 33.2292 16.8544 32.9352 16.5049 32.9219C16.5048 32.9219 16.5047 32.9219 16.5047 32.9219C8.24204 32.6152 1.61033 25.9954 1.28883 17.7333H3.8C4.14976 17.7333 4.43333 17.4498 4.43333 17.1C4.43333 16.7502 4.14976 16.4667 3.8 16.4667H1.28883C1.60574 8.21916 8.21908 1.60605 16.4667 1.28947V3.16667C16.4667 3.51642 16.7502 3.8 17.1 3.8C17.4498 3.8 17.7333 3.51642 17.7333 3.16667V1.28947C25.868 1.60407 32.4335 8.04555 32.9029 16.1728L30.4329 13.7028C30.1813 13.4598 29.7804 13.4667 29.5374 13.7183C29.3004 13.9637 29.3004 14.3528 29.5374 14.5983L33.0727 18.1336C33.1392 18.2142 33.2251 18.2767 33.3222 18.3154C33.347 18.3228 33.3722 18.329 33.3976 18.3337C33.441 18.3494 33.486 18.3603 33.5318 18.366C33.5382 18.366 33.5439 18.366 33.5502 18.366C33.5565 18.366 33.5622 18.366 33.5679 18.366C33.6161 18.3624 33.6638 18.3531 33.7098 18.3382C33.7359 18.335 33.7617 18.3302 33.7871 18.3236C33.8728 18.2931 33.9509 18.2443 34.0157 18.1805L37.5991 14.5983C37.8421 14.3467 37.8352 13.9458 37.5836 13.7028C37.3382 13.4658 36.9491 13.4658 36.7036 13.7028L34.1721 16.2323C33.7197 7.15429 26.2343 0.0222458 17.145 0.00886667C17.1291 0.00823333 17.1158 0 17.1 0C17.0842 0 17.0709 0.00823333 17.055 0.00886667C7.64608 0.0217708 0.0217708 7.64608 0.00886667 17.055C0.00886667 17.0709 0 17.0842 0 17.1C0 17.1158 0.00823333 17.1291 0.00886667 17.145C0.0246208 26.3217 7.28737 33.8468 16.4578 34.188H16.4812C16.8216 34.1879 17.101 33.9188 17.1139 33.5787Z" fill="#10D0A1"/>
<path d="M25.6088 8.59119C25.3614 8.34395 24.9605 8.34395 24.7132 8.59119L17.9074 15.3964C17.3932 15.1671 16.8059 15.1671 16.2918 15.3964L13.0694 12.174C12.8178 11.931 12.4168 11.938 12.1739 12.1896C11.9368 12.435 11.9368 12.8241 12.1739 13.0695L15.3899 16.2856C14.9384 17.2308 15.3386 18.3632 16.284 18.8147C17.0095 19.1613 17.8748 19.0127 18.4432 18.444C19.0147 17.8773 19.1619 17.0096 18.8093 16.2862L25.6088 9.48672C25.856 9.23941 25.856 8.83851 25.6088 8.59119ZM17.5479 17.5476C17.5478 17.5477 17.5478 17.5477 17.5477 17.5478C17.2972 17.7873 16.9026 17.7873 16.6522 17.5478C16.4048 17.3005 16.4048 16.8995 16.652 16.6521C16.8993 16.4047 17.3003 16.4047 17.5477 16.6519C17.7951 16.8993 17.7951 17.3003 17.5479 17.5476Z" fill="#10D0A1"/>
</svg>
