<svg width="36" height="40" viewBox="0 0 36 40" fill="none" xmlns="http://www.w3.org/2000/svg">
<path d="M17.2314 34.8477H12.3096C11.2919 34.8477 10.4639 35.6756 10.4639 36.6934C10.4639 37.7111 11.2919 38.5391 12.3096 38.5391H17.2314C18.2491 38.5391 19.0771 37.7111 19.0771 36.6934C19.0771 35.6756 18.2491 34.8477 17.2314 34.8477ZM17.2314 37.3086H12.3096C11.9703 37.3086 11.6943 37.0326 11.6943 36.6934C11.6943 36.3541 11.9703 36.0781 12.3096 36.0781H17.2314C17.5707 36.0781 17.8467 36.3541 17.8467 36.6934C17.8467 37.0326 17.5706 37.3086 17.2314 37.3086Z" fill="#F72A75"/>
<path d="M35.4098 4.6875H25.9672V2.92969C25.9672 1.31422 24.6435 0 23.0164 0H2.95082C1.3237 0 0 1.31422 0 2.92969V37.0703C0 38.6858 1.3237 40 2.95082 40H23.0164C24.6435 40 25.9672 38.6858 25.9672 37.0703V22.2656H35.4098C35.7358 22.2656 36 22.0033 36 21.6797V5.27344C36 4.94984 35.7358 4.6875 35.4098 4.6875ZM11.2131 21.0938C11.2131 20.5486 11.4739 20.0259 11.9106 19.6955L19.1581 14.2133L21.228 15.7791C21.7544 16.1773 22.3853 16.3764 23.0163 16.3764C23.6472 16.3764 24.2782 16.1773 24.8047 15.7791L26.8747 14.2132L34.1223 19.6956C34.5591 20.0259 34.8198 20.5487 34.8198 21.0938H11.2131V21.0938ZM11.2131 8.20336L18.1843 13.4766L11.2131 18.75V8.20336ZM27.8484 13.4766L34.8197 8.20312V18.7499L27.8484 13.4766ZM34.1221 7.25758L24.0893 14.8469C23.4574 15.3248 22.5751 15.3248 21.9432 14.8469L11.9105 7.25758C11.4751 6.92828 11.2148 6.40781 11.2132 5.86453V5.85938H34.8196C34.8196 6.40453 34.5588 6.92719 34.1221 7.25758ZM24.7869 37.0703C24.7869 38.0396 23.9926 38.8281 23.0164 38.8281H2.95082C1.97461 38.8281 1.18033 38.0396 1.18033 37.0703V2.92969C1.18033 1.96039 1.97461 1.17188 2.95082 1.17188H23.0164C23.9926 1.17188 24.7869 1.96039 24.7869 2.92969V4.6875H23.6066V2.92969C23.6066 2.60609 23.3424 2.34375 23.0164 2.34375H2.95082C2.62481 2.34375 2.36066 2.60609 2.36066 2.92969V20.5078C2.36066 20.8314 2.62481 21.0938 2.95082 21.0938C3.27683 21.0938 3.54098 20.8314 3.54098 20.5078V3.51562H22.4262V4.6875H10.623C10.2969 4.6875 10.0328 4.94984 10.0328 5.27344V21.6797C10.0328 22.0033 10.2969 22.2656 10.623 22.2656H22.4262V31.7969H3.54098V22.8516C3.54098 22.528 3.27683 22.2656 2.95082 22.2656C2.62481 22.2656 2.36066 22.528 2.36066 22.8516V32.3828C2.36066 32.7064 2.62481 32.9688 2.95082 32.9688H23.0164C23.3424 32.9688 23.6066 32.7064 23.6066 32.3828V22.2656H24.7869V37.0703Z" fill="#F72A75"/>
</svg>
