<svg width="30" height="45" viewBox="0 0 30 45" fill="none" xmlns="http://www.w3.org/2000/svg">
<path d="M14.7816 3.45901C14.3035 3.45555 13.9136 3.84026 13.9102 4.31748C13.9067 4.79469 14.2906 5.18459 14.7686 5.18805C15.2459 5.1915 15.6358 4.80766 15.6392 4.33044C15.6427 3.85323 15.2588 3.46333 14.7816 3.45901Z" fill="#0E63FF"/>
<path d="M14.7421 8.64566C11.4041 8.62198 8.67044 11.3149 8.64519 14.6518C8.62004 17.9886 11.3144 20.7236 14.6514 20.7488C14.6668 20.7488 14.6822 20.7489 14.6977 20.7489C18.0134 20.7489 20.7232 18.0641 20.7483 14.7426C20.7734 11.406 18.0792 8.67082 14.7421 8.64566ZM14.6975 19.02C14.6866 19.02 14.6752 19.0199 14.6643 19.0198C12.2808 19.0018 10.3562 17.0482 10.3741 14.6648C10.392 12.2921 12.3275 10.3744 14.696 10.3744C14.7069 10.3744 14.7183 10.3745 14.7292 10.3746C17.1127 10.3926 19.0373 12.3462 19.0193 14.7296C19.0014 17.1023 17.066 19.02 14.6975 19.02Z" fill="#0E63FF"/>
<path d="M18.4686 4.1139C18.0188 3.95431 17.5244 4.1899 17.3648 4.63996C17.2053 5.09003 17.4409 5.58411 17.8909 5.7437C21.6988 7.0933 24.2366 10.72 24.2062 14.7683C24.2027 15.2457 24.5868 15.6357 25.0642 15.6393C25.0664 15.6393 25.0687 15.6393 25.0709 15.6393C25.5452 15.6393 25.9316 15.2565 25.9352 14.7813C25.9712 9.99644 22.9706 5.70955 18.4686 4.1139Z" fill="#0E63FF"/>
<path d="M20.0016 32.5441C25.7517 25.1425 29.3453 21.2829 29.3938 14.8073C29.4547 6.65982 22.8426 0 14.6958 0C6.64398 0 0.0617028 6.52089 0.000494847 14.5869C-0.0489556 21.238 3.61133 25.0924 9.40119 32.5429C3.64133 33.4036 0.000494847 35.5664 0.000494847 38.2117C0.000494847 39.9837 1.63841 41.5739 4.61262 42.6891C7.31969 43.7042 10.9011 44.2633 14.6971 44.2633C18.4932 44.2633 22.0746 43.7042 24.7817 42.6891C27.7559 41.5738 29.3938 39.9837 29.3938 38.2117C29.3938 35.5678 25.7563 33.4055 20.0016 32.5441ZM1.72945 14.5999C1.78339 7.48241 7.5908 1.72904 14.6959 1.72904C21.8852 1.72904 27.7184 7.60673 27.6648 14.7944C27.6189 20.9441 23.8079 24.7339 17.7237 32.6652C16.6384 34.0793 15.6418 35.4161 14.6984 36.7239C13.7578 35.4154 12.7811 34.1024 11.6796 32.6647C5.34391 24.4013 1.68259 20.8979 1.72945 14.5999ZM14.6971 42.5343C7.27516 42.5343 1.72945 40.2523 1.72945 38.2117C1.72945 36.6985 5.0447 34.7869 10.6189 34.1249C11.8511 35.7416 12.9315 37.2105 13.991 38.7106C14.1528 38.9397 14.4158 39.0761 14.6964 39.0763C14.6966 39.0763 14.6969 39.0763 14.6971 39.0763C14.9774 39.0763 15.2403 38.9404 15.4024 38.7117C16.4519 37.2311 17.5618 35.7261 18.7835 34.1259C24.3525 34.7885 27.6648 36.6995 27.6648 38.2118C27.6648 40.2523 22.1191 42.5343 14.6971 42.5343Z" fill="#0E63FF"/>
</svg>
